<?xml version="1.0" encoding="utf-8"?>
<!-- Generator: Adobe Illustrator 22.1.0, SVG Export Plug-In . SVG Version: 6.00 Build 0)  -->
<svg version="1.1" id="Layer_1" xmlns="http://www.w3.org/2000/svg" xmlns:xlink="http://www.w3.org/1999/xlink" x="0px" y="0px"
	 viewBox="0 0 512 512" style="enable-background:new 0 0 512 512;" xml:space="preserve">
<style type="text/css">
	.st0{fill:none;stroke:#FFFFFF;stroke-width:2;stroke-miterlimit:10;}
	.st1{fill:none;stroke:#FFFFFF;stroke-width:3;stroke-miterlimit:10;}
	.st2{fill:#F2F0EC;}
	.st3{fill:#FFFFFF;stroke:#FFFFFF;stroke-width:3;stroke-miterlimit:10;}
	.st4{opacity:0.5;fill:#FFFFFF;}
	.st5{fill:none;}
	.st6{fill:#FFFFFF;}
	.st7{fill:none;stroke:#FFFFFF;stroke-miterlimit:10;}
</style>
<path class="st0" d="M505,256c0,137.5-111.5,249-249,249S7,393.5,7,256S118.5,7,256,7S505,118.5,505,256z"/>
<path class="st1" d="M309.9,441.6v57.4c-16.5,3.3-33.5,5.1-50.9,5.1c-12.8,0-25.3-0.9-37.6-2.8c-0.1,0-0.2,0-0.2,0
	c-1.3-0.2-2.5-0.4-3.8-0.6c-1-0.2-2-0.3-3-0.5c-0.5-0.1-1-0.2-1.4-0.3c-1.2-0.2-2.4-0.4-3.5-0.7c0,0-0.1,0-0.1,0
	c-1.2-0.2-2.3-0.5-3.5-0.7c-0.2,0-0.5-0.1-0.7-0.2c-1.2-0.2-2.4-0.5-3.6-0.8c-1.3-0.3-2.6-0.6-3.9-0.9c-1.2-0.3-2.3-0.6-3.5-0.9
	c-0.1,0-0.3-0.1-0.4-0.1c-1.3-0.3-2.6-0.7-3.8-1c-1.3-0.3-2.5-0.7-3.8-1.1c0,0-0.1,0-0.1,0c-1.2-0.3-2.3-0.7-3.5-1
	c-0.2-0.1-0.4-0.1-0.7-0.2c-1.1-0.4-2.2-0.7-3.3-1.1c-1.2-0.4-2.5-0.8-3.7-1.3c0,0-0.1,0-0.2-0.1c-1.2-0.4-2.4-0.8-3.6-1.3
	c-1.2-0.4-2.4-0.9-3.6-1.3c0,0-0.1,0-0.1,0c-1.2-0.5-2.4-0.9-3.7-1.4c-1.2-0.5-2.4-1-3.6-1.5c-1.2-0.5-2.4-1-3.6-1.5
	c-1.2-0.5-2.4-1.1-3.6-1.6s-2.4-1.1-3.6-1.7c-1.2-0.5-2.3-1.1-3.5-1.7c-1.2-0.6-2.3-1.2-3.5-1.8c-1.1-0.6-2.1-1.1-3.2-1.7
	c-0.2-0.1-0.3-0.2-0.5-0.2c-1.1-0.6-2.1-1.1-3.2-1.7c-1-0.6-2.1-1.1-3.1-1.7c-0.4-0.2-0.9-0.5-1.3-0.7c-1.9-1.1-3.8-2.2-5.7-3.4
	c-1.2-0.7-2.4-1.5-3.6-2.2c-0.9-0.6-1.8-1.1-2.7-1.7c-1.3-0.9-2.7-1.8-4-2.6c-1-0.7-1.9-1.3-2.9-2c-2.1-1.5-4.2-3-6.3-4.5
	c-16.2-12.1-30.9-26-43.9-41.5c10-30.3,34.7-53.9,65.8-62.2l5.4,25.2l7.4,34.3l42.8-23.8l42.8,23.8l12.8-59.5
	c2.7,0.7,5.4,1.6,8.1,2.5c0.1,0,0.1,0,0.2,0.1c1.4,0.5,2.8,1.1,4.2,1.6c0.6,0.3,1.2,0.5,1.9,0.8c0.2,0.1,0.4,0.2,0.5,0.2
	c0.6,0.3,1.2,0.5,1.8,0.8c0,0,0,0,0.1,0c0.7,0.3,1.4,0.7,2,1c0.7,0.3,1.4,0.7,2,1.1c0.9,0.5,1.8,1,2.8,1.6c0.4,0.2,0.8,0.5,1.2,0.7
	c0,0,0.1,0,0.1,0.1c0.6,0.3,1.1,0.7,1.7,1.1c0.1,0.1,0.2,0.2,0.4,0.2c0.6,0.4,1.1,0.7,1.7,1.1c0,0,0,0,0,0c0.6,0.4,1.2,0.8,1.9,1.3
	c0.6,0.4,1.2,0.9,1.8,1.4c0.6,0.5,1.2,0.9,1.8,1.4c1.6,1.3,3.2,2.6,4.7,4c0.4,0.3,0.8,0.7,1.1,1c2,1.8,3.9,3.7,5.6,5.7
	c0.4,0.5,0.9,1,1.3,1.5c0.3,0.4,0.7,0.8,1,1.2c0.6,0.7,1.2,1.4,1.8,2.1c0.3,0.4,0.6,0.8,0.9,1.2c0.1,0.1,0.2,0.2,0.2,0.3
	c0.3,0.4,0.7,0.9,1,1.3c1.4,1.9,2.7,3.8,3.9,5.8c0.3,0.4,0.6,0.9,0.9,1.3c0.1,0.2,0.2,0.3,0.3,0.4c0.3,0.5,0.6,0.9,0.8,1.4
	c1.3,2.3,2.5,4.6,3.7,7c0.2,0.5,0.5,1,0.7,1.5c0.3,0.6,0.5,1.2,0.8,1.8c0.4,0.9,0.8,1.9,1.1,2.8c0.2,0.4,0.3,0.8,0.5,1.2
	c0.6,1.7,1.2,3.3,1.7,5c0.2,0.7,0.5,1.5,0.7,2.2c0,0.1,0,0.1,0,0.2c0.2,0.7,0.4,1.4,0.6,2.2c0.2,0.8,0.4,1.5,0.6,2.3
	c0.1,0.6,0.3,1.3,0.4,2c0,0.2,0.1,0.4,0.1,0.5c0.2,0.7,0.3,1.4,0.4,2.2c0.3,1.4,0.5,2.9,0.7,4.3c0.1,0.6,0.2,1.3,0.2,1.9
	c0,0.1,0,0.2,0,0.3c0,0.4,0.1,0.7,0.1,1.1c0.1,0.6,0.1,1.2,0.2,1.8c0,0.5,0.1,1,0.1,1.6c0,0.5,0.1,1,0.1,1.5c0,0.7,0.1,1.4,0.1,2.1
	C309.9,440,309.9,440.8,309.9,441.6z"/>
<path class="st2" d="M193.8,383.9c-3.2,1-6.5,1.5-10,1.5c-6.2,0-12.1-1.7-17.1-4.6h34.2C198.7,382.1,196.3,383.1,193.8,383.9z"/>
<path class="st3" d="M247.5,352.2c-2.6-1-5.3-1.8-8.1-2.5l-12.8,59.5l-26-14.4l-14.9,23.9l20.5,79.9c-14.4-3-28.3-7.2-41.7-12.5
	l17.3-67.4l-14.9-23.9l-26,14.4l-7.4-34.3l-5.4-25.2c5.5-1.5,11.1-2.4,16.9-2.9c1.6-0.1,3.2-0.2,4.8-0.3v5
	c0,12.5,6.8,23.4,16.8,29.3c5,2.9,10.9,4.6,17.1,4.6c3.5,0,6.9-0.5,10-1.5c2.5-0.8,4.9-1.8,7-3.1c10.1-5.9,16.9-16.8,16.9-29.3v-5
	c0.7,0,1.5,0.1,2.2,0.1c0.6,0,1.2,0.1,1.8,0.1c0.1,0,0.3,0,0.4,0c0.7,0,1.3,0.1,2,0.2c0.2,0,0.4,0,0.5,0c0.6,0.1,1.2,0.1,1.8,0.2
	c0.2,0,0.5,0.1,0.7,0.1c0.7,0.1,1.3,0.2,2,0.3c0.8,0.1,1.6,0.2,2.4,0.4c0.8,0.1,1.5,0.3,2.3,0.4c0.5,0.1,1,0.2,1.5,0.3
	c0.2,0,0.4,0.1,0.6,0.1c1.1,0.3,2.2,0.5,3.4,0.8C242.1,350.4,244.8,351.3,247.5,352.2z"/>
<path class="st4" d="M329.3,217.9l-57.3,32.7l13.8-32.8l-11.2,3.5l-2.8-19h-21.5V169c-0.5,0-1,0.1-1.5,0.1
	c-7.3,0.5-14.7-0.2-21.8-1.9c-0.8-0.2-1.7-0.4-2.5-0.7c-0.8-0.2-1.7-0.5-2.5-0.8c-2.2-0.7-4.4-1.5-6.6-2.5c-0.5-0.2-1.1-0.5-1.6-0.7
	c-1.6-0.7-3.2-1.5-4.8-2.4c-0.5-0.3-1-0.6-1.5-0.9c-5.1-3-10-6.8-14.4-11.2h-89l-11,73.3l-26.7-8.3l0.1-2.2
	c-0.7-0.2-1.4-0.3-2.1-0.4c-1.6-0.3-3.3-0.4-5-0.4c-17.4,0-31.6,14.1-31.6,31.6c0,17.4,14.1,31.6,31.6,31.6c1.7,0,3.4-0.1,5-0.4
	c3.9-0.6,7.5-1.9,10.8-3.8c13.2,32.7,40.8,58.1,74.9,68.3v14.2c0,12.5,6.8,23.4,16.8,29.3c5,2.9,10.9,4.6,17.1,4.6
	c3.5,0,6.9-0.5,10-1.5c2.5-0.8,4.9-1.8,7-3.1c10.1-5.9,16.9-16.8,16.9-29.3v-14.3c34.1-10.3,61.7-35.6,74.9-68.3
	c3.2,1.9,6.9,3.2,10.7,3.8c1.6,0.3,3.3,0.4,5.1,0.4c17.4,0,31.6-14.1,31.6-31.6C340,232.1,335.9,223.7,329.3,217.9z M170.4,240h26.7
	c3.2,0,5.8,2.6,5.8,5.8c0,3.2-2.6,5.7-5.8,5.7h-26.7c-3.2,0-5.7-2.6-5.7-5.7C164.7,242.5,167.3,240,170.4,240z M212.4,280.4
	c-9,4.9-18.8,7.4-28.6,7.4c-9.8,0-19.7-2.5-28.6-7.4c-2.5-1.4-3.5-4.6-2.1-7.1c1.4-2.5,4.6-3.4,7.1-2.1c14.8,8.1,32.4,8.1,47.2,0
	c2.5-1.4,5.7-0.5,7.1,2.1C215.8,275.9,214.9,279,212.4,280.4z"/>
<g id="Eyes">
	<g>
		<path class="st5" d="M158.8,217.9c0,7.4-6,13.3-13.3,13.3c-7.4,0-13.3-6-13.3-13.3c0-7.4,6-13.3,13.3-13.3
			C152.8,204.6,158.8,210.6,158.8,217.9z"/>
		<path class="st6" d="M156,215.6c0,3.2-2.6,5.7-5.7,5.7s-5.7-2.6-5.7-5.7s2.6-5.7,5.7-5.7S156,212.4,156,215.6z"/>
	</g>
	<g>
		<path class="st7" d="M235.4,217.9c0,7.4-6,13.3-13.3,13.3c-7.4,0-13.3-6-13.3-13.3c0-7.4,6-13.3,13.3-13.3
			C229.5,204.6,235.4,210.6,235.4,217.9z"/>
		<path class="st6" d="M233.4,215.6c0,3.2-2.6,5.7-5.7,5.7s-5.7-2.6-5.7-5.7s2.6-5.7,5.7-5.7S233.4,212.4,233.4,215.6z"/>
	</g>
</g>
<g id="Hair">
	<path class="st1" d="M250.3,74v95c-0.5,0-1,0.1-1.5,0.1c-7.3,0.5-14.7-0.2-21.8-1.9c-0.8-0.2-1.7-0.4-2.5-0.7
		c-0.8-0.2-1.7-0.5-2.5-0.8c-2.2-0.7-4.4-1.5-6.6-2.5c-0.5-0.2-1.1-0.5-1.6-0.7c-1.6-0.8-3.2-1.6-4.8-2.4c-0.5-0.3-1-0.6-1.5-0.9
		c-5.1-3-10-6.8-14.4-11.2h-89l-11,73.3l-26.7-8.3l0.1-2.2l3.5-69.6c0.5-10.1,3.1-19.6,7.3-28.1c0.5-1,1-2,1.6-3
		c1.5-2.6,3.1-5.2,4.9-7.6c0.4-0.5,0.8-1,1.1-1.5c0.5-0.6,1-1.2,1.5-1.9c0.5-0.7,1.1-1.3,1.7-1.9c6.4-7.2,14.3-13.1,23.2-17.2
		c1-0.5,2-0.9,3.1-1.3c0,0,0,0,0,0c1-0.4,2.1-0.8,3.1-1.2c7.5-2.6,15.6-4.1,24-4l49.5,0.2l43.2,0.2L250.3,74z"/>
	<polygon class="st1" points="292.4,202.4 285.9,217.8 285.9,217.9 274.7,221.3 271.8,202.4 	"/>
</g>
<path class="st2" d="M250.3,28v174.3h42.1l-6.5,15.5v0l-13.8,32.8l57.3-32.7l27.2-15.5h125.7V28H250.3z M366.2,52.1
	c6.7,0,11.6,4.7,11.6,11.3c0,11-0.4,23.2-0.8,35c-0.4,11.8-0.8,23.9-0.8,34.9c0,5.6-5.1,9-9.9,9c-5.6,0-9.9-3.9-9.9-9
	c0-10.9-0.4-23.1-0.8-34.9c-0.4-11.8-0.9-24-0.9-35C354.7,56.8,359.4,52.1,366.2,52.1z M366.4,178.3c-7,0-12.7-5.6-12.7-12.5
	c0-7,5.7-12.7,12.7-12.7c6.8,0,12.4,5.7,12.4,12.7C378.8,172.5,373.1,178.3,366.4,178.3z"/>
</svg>
