<?xml version="1.0" encoding="utf-8"?>
<!-- Generator: Adobe Illustrator 22.1.0, SVG Export Plug-In . SVG Version: 6.00 Build 0)  -->
<svg version="1.1" id="Capa_1" xmlns="http://www.w3.org/2000/svg" xmlns:xlink="http://www.w3.org/1999/xlink" x="0px" y="0px"
	 viewBox="0 0 294.8 294.8" style="enable-background:new 0 0 294.8 294.8;" xml:space="preserve">
<style type="text/css">
	.st0{fill:#8E8E8E;}
</style>
<g>
	<path class="st0" d="M147.4,0C66.1,0,0,66.1,0,147.4s66.1,147.4,147.4,147.4c38.3,0,74.6-14.6,102.2-41.1c2.4-2.3,2.5-6.1,0.2-8.5
		c-2.3-2.4-6.1-2.5-8.5-0.2c-25.3,24.4-58.7,37.8-93.8,37.8C72.8,282.8,12,222.1,12,147.4S72.8,12,147.4,12s135.4,60.8,135.4,135.4
		c0,16.8-3.1,33.3-9.1,48.8c-1.2,3.1,0.3,6.6,3.4,7.8c3.1,1.2,6.6-0.3,7.8-3.4c6.6-16.9,9.9-34.8,9.9-53.2
		C294.8,66.1,228.7,0,147.4,0z"/>
	<path class="st0" d="M167.6,160.1c-2.4-2.3-6.2-2.3-8.5,0.1c-2.3,2.4-2.3,6.2,0.1,8.5l47.2,46.2c1.2,1.1,2.7,1.7,4.2,1.7
		c1.6,0,3.1-0.6,4.3-1.8c2.3-2.4,2.3-6.2-0.1-8.5L167.6,160.1z"/>
	<path class="st0" d="M125.2,133.7c1.2,1.2,2.7,1.8,4.2,1.8c1.5,0,3.1-0.6,4.2-1.8c2.3-2.3,2.3-6.1,0-8.5L88.4,79.9
		c-2.3-2.3-6.1-2.3-8.5,0c-2.3,2.3-2.3,6.1,0,8.5L125.2,133.7z"/>
	<path class="st0" d="M214.9,79.9c-2.3-2.3-6.1-2.3-8.5,0L79.9,206.4c-2.3,2.3-2.3,6.1,0,8.5c1.2,1.2,2.7,1.8,4.2,1.8
		s3.1-0.6,4.2-1.8L214.9,88.4C217.2,86.1,217.2,82.3,214.9,79.9z"/>
</g>
</svg>
